<svg id="Capa_1" stroke="#fff" fill="#fff" enable-background="new 0 0 512 512" height="512" viewBox="0 0 512 512" width="512" xmlns="http://www.w3.org/2000/svg"><g><path d="m50.628 512h410.744c5.497 0 9.97-4.473 9.97-9.97v-30.853c0-5.497-4.473-9.969-9.97-9.969h-14.289v-237.417c9.294-6.085 15.446-16.59 15.446-28.504v-35.404c0-4.282-1.461-8.53-4.305-11.979l-40.974-49.639c1.1-1.861 1.732-4.029 1.732-6.343v-79.419c.001-6.894-5.607-12.503-12.502-12.503h-300.961c-6.894 0-12.502 5.609-12.502 12.503v79.419c0 2.314.632 4.482 1.732 6.343l-40.974 49.639c-2.743 3.324-4.305 7.544-4.305 11.979v35.404c0 11.914 6.152 22.418 15.446 28.503v237.418h-14.288c-5.498 0-9.97 4.472-9.97 9.969v30.853c0 5.497 4.472 9.97 9.97 9.97zm396.901-316.713c0 10.501-8.544 19.045-19.045 19.045h-26.521c-10.501 0-19.045-8.544-19.045-19.045v-31.972h64.611zm-338.414-90.862h44.55l-21.737 43.89h-59.042zm107.961 0-7.245 43.891h-61.165l21.737-43.891zm62.645 0 7.246 43.891h-61.933l7.246-43.891zm123.164 0 36.229 43.89h-59.041l-21.737-43.89zm-61.288 0 21.737 43.891h-61.166l-7.245-43.891zm-197.515 58.89h64.612v31.971c0 10.501-8.543 19.045-19.045 19.045h-26.521c-10.502 0-19.045-8.544-19.045-19.045 0-6.927-.001 17.142-.001-31.971zm79.612 0h64.612v31.971c0 10.501-8.544 19.045-19.045 19.045h-26.521c-10.501 0-19.045-8.544-19.045-19.045v-31.971zm79.612 0h64.612v31.971c0 10.501-8.544 19.045-19.046 19.045h-26.521c-10.502 0-19.046-8.544-19.046-19.045v-31.971zm-195.289-148.315h295.967v74.425c-34.229 0-257.568 0-295.967 0zm-43.546 148.315h64.611v31.972c0 10.502-8.543 19.045-19.045 19.045h-26.521c-10.501 0-19.045-8.544-19.045-19.045zm19.045 66.017h26.521c10.721 0 20.3-4.981 26.545-12.751 6.245 7.77 15.824 12.751 26.545 12.751h26.521c10.721 0 20.3-4.981 26.545-12.751 6.245 7.77 15.824 12.751 26.545 12.751h26.521c10.721 0 20.3-4.981 26.545-12.751 6.245 7.77 15.824 12.751 26.546 12.751h26.521c10.721 0 20.301-4.981 26.546-12.751 6.245 7.77 15.824 12.751 26.545 12.751h26.521c1.215 0 2.416-.065 3.599-.189v184.907h-121.23v-137.94c0-5.087-4.139-9.225-9.226-9.225h-91.252c-5.087 0-9.225 4.138-9.225 9.225v22.373c0 4.142 3.358 7.5 7.5 7.5s7.5-3.358 7.5-7.5v-16.598h79.703v179.323h-79.703v-127.726c0-4.142-3.358-7.5-7.5-7.5s-7.5 3.358-7.5 7.5v80.567h-121.232v-184.906c1.183.124 2.383.189 3.599.189zm-3.599 199.717h121.232v32.159h-121.232zm-24.259 47.159h316.418c4.143 0 7.5-3.358 7.5-7.5s-3.357-7.5-7.5-7.5h-61.225v-32.159h121.231v32.159h-25.007c-4.143 0-7.5 3.358-7.5 7.5s3.357 7.5 7.5 7.5h49.266v20.792h-400.683z"/><path d="m311.252 79.425c4.143 0 7.5-3.358 7.5-7.5s-3.357-7.5-7.5-7.5h-178.235v-24.425h245.967v24.425h-32.731c-4.143 0-7.5 3.358-7.5 7.5s3.357 7.5 7.5 7.5h38.855c4.895 0 8.876-3.982 8.876-8.876v-36.673c0-4.895-3.981-8.876-8.876-8.876h-258.215c-4.895 0-8.876 3.982-8.876 8.876v36.672c0 4.895 3.982 8.876 8.876 8.876h184.359z"/><path d="m330.077 384.742h82.781c5.087 0 9.225-4.138 9.225-9.225v-99.407c0-5.087-4.138-9.225-9.225-9.225h-82.781c-5.087 0-9.226 4.138-9.226 9.225v99.407c.001 5.087 4.139 9.225 9.226 9.225zm5.775-102.857h71.231v87.857h-71.231z"/><path d="m99.142 384.742h82.781c5.087 0 9.226-4.138 9.226-9.225v-99.407c0-5.087-4.139-9.225-9.226-9.225h-82.781c-5.087 0-9.226 4.138-9.226 9.225v99.407c.001 5.087 4.139 9.225 9.226 9.225zm5.775-102.857h71.232v87.857h-71.232z"/><path d="m278.352 408.478c4.143 0 7.5-3.358 7.5-7.5v-49.451c0-4.142-3.357-7.5-7.5-7.5s-7.5 3.358-7.5 7.5v49.451c0 4.142 3.357 7.5 7.5 7.5z"/></g></svg>